<?xml version="1.0" encoding="utf-8"?>
<!-- Generator: Adobe Illustrator 16.0.0, SVG Export Plug-In . SVG Version: 6.00 Build 0)  -->
<!DOCTYPE svg PUBLIC "-//W3C//DTD SVG 1.1//EN" "http://www.w3.org/Graphics/SVG/1.1/DTD/svg11.dtd">
<svg version="1.1" id="fd_x5F_logo" xmlns="http://www.w3.org/2000/svg" xmlns:xlink="http://www.w3.org/1999/xlink" x="0px"
	 y="0px" width="300px" height="62px" viewBox="0 0 300 62" enable-background="new 0 0 300 62" xml:space="preserve">
<g>
	<g>
		<polygon fill-rule="evenodd" clip-rule="evenodd" fill="#FFFFFF" points="208.957,17.311 208.957,22.002 199.026,22.002 
			199.026,25.598 208.957,25.598 208.957,38.812 193.499,38.812 193.499,34.121 203.432,34.121 203.432,30.288 193.499,30.288 
			193.499,22.784 193.499,17.311 		"/>
		<g>
			<path fill-rule="evenodd" clip-rule="evenodd" fill="#FFFFFF" d="M164.834,33.338h4.352V22.784h-4.352V33.338L164.834,33.338
				L164.834,33.338z M174.894,17.311v21.501H156.73v-5.474h2.396V22.784h-2.396v-5.473H174.894z"/>
		</g>
		<g>
			<path fill-rule="evenodd" clip-rule="evenodd" fill="#FFFFFF" d="M218.549,27.514h4.797v-4.729h-4.797V27.514L218.549,27.514
				L218.549,27.514z M229.017,17.311v15.285h-10.468v6.216h-5.671V17.311H229.017z"/>
		</g>
		<polygon fill-rule="evenodd" clip-rule="evenodd" fill="#FFFFFF" points="232.392,22.784 232.392,17.311 237.935,17.311 
			237.935,33.731 247.43,33.731 247.43,38.812 232.392,38.812 		"/>
		<g>
			<path fill-rule="evenodd" clip-rule="evenodd" fill="#FFFFFF" d="M260.283,28.688l-0.557-5.903h-2.865l-0.555,5.903H260.283
				L260.283,28.688L260.283,28.688z M264.139,17.311l2.704,21.501h-5.565l-0.438-4.651h-5.088l-0.438,4.651h-5.566l2.702-21.501
				H264.139z"/>
		</g>
		<path fill-rule="evenodd" clip-rule="evenodd" fill="#FFFFFF" d="M273.358,38.798v-8.763l-7.123-12.725
			c1.565,0.021,2.858,0.032,3.871,0.032c0.977,0,2.138-0.01,3.495-0.032c1.186,2.616,2.079,4.93,3.119,7.579l3.088-7.556
			c1.316,0.021,4.225,0.009,5.434,0.009c0.642,0,0.06,0.009,1.746-0.012c-0.84,1.244-7.221,12.543-7.221,12.746l0.049,8.735
			L273.358,38.798z"/>
		<polygon fill-rule="evenodd" clip-rule="evenodd" fill="#FFFFFF" points="178.786,33.351 181.414,33.351 181.414,22.772 
			178.786,22.772 178.786,17.311 189.66,17.311 189.66,22.772 187.33,22.772 187.33,33.351 189.66,33.351 189.66,38.812 
			178.786,38.812 		"/>
	</g>
	
		<rect x="20.563" y="5.063" transform="matrix(0.7072 0.7071 -0.7071 0.7072 20.0007 -12.7879)" fill-rule="evenodd" clip-rule="evenodd" fill="#FFFFFF" width="9.751" height="25.377"/>
	<polygon fill-rule="evenodd" clip-rule="evenodd" fill="#FFFFFF" points="41.959,29.811 35.064,22.916 17.119,40.721 17.188,40.79 
		17.119,40.86 33.303,56.908 40.198,50.011 30.979,40.79 	"/>
	<polygon fill-rule="evenodd" clip-rule="evenodd" fill="#FFFFFF" points="70.115,17.262 70.115,22.345 61.123,22.345 
		61.123,26.021 67.73,26.021 67.73,31.104 61.123,31.104 61.123,38.764 55.531,38.764 55.531,22.737 55.531,17.262 	"/>
	<g>
		<path fill-rule="evenodd" clip-rule="evenodd" fill="#FFFFFF" d="M77.856,27.271h4.73v-4.926h-4.73V27.271L77.856,27.271
			L77.856,27.271z M88.177,17.262v14.702h-3.01l3.831,6.801h-6.255l-3.246-6.41h-1.642v6.41h-5.591V22.737v-5.475H88.177z"/>
	</g>
	<g>
		<path fill-rule="evenodd" clip-rule="evenodd" fill="#FFFFFF" d="M96.817,33.292h4.848V22.737h-4.848V33.292L96.817,33.292
			L96.817,33.292z M107.256,17.262v21.502h-16.03V17.262H107.256z"/>
	</g>
	<polygon fill-rule="evenodd" clip-rule="evenodd" fill="#FFFFFF" points="121.917,29.93 121.917,17.262 127.508,17.262 
		127.508,38.764 121.917,38.764 115.739,26.098 115.739,38.764 110.148,38.764 110.148,22.737 110.148,17.262 115.739,17.262 	"/>
	<polygon fill-rule="evenodd" clip-rule="evenodd" fill="#FFFFFF" points="145.062,17.262 145.062,22.737 139.901,22.737 
		139.901,38.764 134.31,38.764 134.31,22.737 129.149,22.737 129.149,17.262 	"/>
</g>
</svg>
