<?xml version="1.0" encoding="utf-8"?>
<!-- Generator: Adobe Illustrator 16.0.0, SVG Export Plug-In . SVG Version: 6.00 Build 0)  -->
<!DOCTYPE svg PUBLIC "-//W3C//DTD SVG 1.1//EN" "http://www.w3.org/Graphics/SVG/1.1/DTD/svg11.dtd">
<svg version="1.1" id="Слой_1" xmlns="http://www.w3.org/2000/svg" xmlns:xlink="http://www.w3.org/1999/xlink" x="0px" y="0px"
	 width="600px" height="127px" viewBox="0 0 600 127" enable-background="new 0 0 600 127" xml:space="preserve">
<g>
	<g>
		<polygon fill-rule="evenodd" clip-rule="evenodd" fill="#0095DA" points="421.959,33.029 421.959,42.734 401.416,42.734 
			401.416,50.173 421.959,50.173 421.959,77.509 389.983,77.509 389.983,67.804 410.529,67.804 410.529,59.875 389.983,59.875 
			389.983,44.352 389.983,33.029 		"/>
		<g>
			<path fill-rule="evenodd" clip-rule="evenodd" fill="#0095DA" d="M330.684,66.186h9.002V44.352h-9.002V66.186L330.684,66.186
				L330.684,66.186z M351.492,33.029v44.479H313.92V66.186h4.956V44.352h-4.956V33.029H351.492z"/>
		</g>
		<g>
			<path fill-rule="evenodd" clip-rule="evenodd" fill="#0095DA" d="M441.802,54.136h9.924v-9.784h-9.924V54.136L441.802,54.136
				L441.802,54.136z M463.457,33.029v31.622h-21.655v12.858h-11.729V33.029H463.457z"/>
		</g>
		<polygon fill-rule="evenodd" clip-rule="evenodd" fill="#0095DA" points="470.439,44.352 470.439,33.029 481.904,33.029 
			481.904,66.997 501.548,66.997 501.548,77.509 470.439,77.509 		"/>
		<g>
			<path fill-rule="evenodd" clip-rule="evenodd" fill="#0095DA" d="M528.137,56.563l-1.152-12.212h-5.925l-1.149,12.212H528.137
				L528.137,56.563L528.137,56.563z M536.113,33.029l5.594,44.479h-11.513l-0.908-9.623h-10.525l-0.904,9.623h-11.516l5.589-44.479
				H536.113z"/>
		</g>
		<path fill-rule="evenodd" clip-rule="evenodd" fill="#0095DA" d="M555.185,77.48V59.352l-14.735-26.323
			c3.238,0.044,5.913,0.066,8.009,0.066c2.02,0,4.422-0.022,7.23-0.066c2.452,5.413,4.301,10.199,6.453,15.678l6.389-15.63
			c2.722,0.044,8.739,0.019,11.239,0.019c1.326,0,0.124,0.019,3.611-0.025c-1.737,2.573-14.937,25.946-14.937,26.368l0.102,18.071
			L555.185,77.48z"/>
		<polygon fill-rule="evenodd" clip-rule="evenodd" fill="#0095DA" points="359.545,66.211 364.983,66.211 364.983,44.326 
			359.545,44.326 359.545,33.029 382.041,33.029 382.041,44.326 377.221,44.326 377.221,66.211 382.041,66.211 382.041,77.509 
			359.545,77.509 		"/>
	</g>
	
		<rect x="32.232" y="7.692" transform="matrix(0.7071 0.7071 -0.7071 0.7071 36.3918 -19.9816)" fill-rule="evenodd" clip-rule="evenodd" fill="#0095DA" width="20.172" height="52.497"/>
	<polygon fill-rule="evenodd" clip-rule="evenodd" points="76.495,58.887 62.23,44.624 25.107,81.459 25.25,81.598 25.107,81.744 
		58.588,114.941 72.851,100.676 53.78,81.598 	"/>
	<polygon fill-rule="evenodd" clip-rule="evenodd" points="134.74,32.928 134.74,43.443 116.139,43.443 116.139,51.046 
		129.807,51.046 129.807,61.562 116.139,61.562 116.139,77.411 104.571,77.411 104.571,44.254 104.571,32.928 	"/>
	<g>
		<path fill-rule="evenodd" clip-rule="evenodd" d="M150.753,53.632h9.786V43.443h-9.786V53.632L150.753,53.632L150.753,53.632z
			 M172.105,32.928v30.413h-6.228l7.926,14.07h-12.94l-6.713-13.263h-3.397v13.263h-11.566V44.254V32.928H172.105z"/>
	</g>
	<g>
		<path fill-rule="evenodd" clip-rule="evenodd" d="M189.978,66.088h10.03V44.254h-10.03V66.088L189.978,66.088L189.978,66.088z
			 M211.572,32.928v44.483h-33.16V32.928H211.572z"/>
	</g>
	<polygon fill-rule="evenodd" clip-rule="evenodd" points="241.9,59.134 241.9,32.928 253.467,32.928 253.467,77.411 241.9,77.411 
		229.122,51.208 229.122,77.411 217.556,77.411 217.556,44.254 217.556,32.928 229.122,32.928 	"/>
	<polygon fill-rule="evenodd" clip-rule="evenodd" points="289.781,32.928 289.781,44.254 279.104,44.254 279.104,77.411 
		267.538,77.411 267.538,44.254 256.863,44.254 256.863,32.928 	"/>
	<text transform="matrix(1.1253 0 0 1 102.7974 110.1025)"><tspan x="0" y="0" font-family="'Calibri'" font-size="30.1438">защищенные</tspan><tspan x="170.942" y="0" font-family="'Calibri'" font-size="30.1438"> </tspan><tspan x="177.757" y="0" font-family="'Calibri'" font-size="30.1438">мониторы</tspan><tspan x="309.93" y="0" font-family="'Calibri'" font-size="30.1438"> </tspan></text>
</g>
</svg>
