<?xml version="1.0" encoding="utf-8"?>
<!-- Generator: Adobe Illustrator 16.0.0, SVG Export Plug-In . SVG Version: 6.00 Build 0)  -->
<!DOCTYPE svg PUBLIC "-//W3C//DTD SVG 1.1//EN" "http://www.w3.org/Graphics/SVG/1.1/DTD/svg11.dtd">
<svg version="1.1" id="Слой_1" xmlns="http://www.w3.org/2000/svg" xmlns:xlink="http://www.w3.org/1999/xlink" x="0px" y="0px"
	 width="444.083px" height="127.494px" viewBox="0 0 444.083 127.494" enable-background="new 0 0 444.083 127.494"
	 xml:space="preserve">
<g>
	
		<rect x="36.028" y="12.325" transform="matrix(0.7072 0.7071 -0.7071 0.7072 39.6319 -21.3387)" fill-rule="evenodd" clip-rule="evenodd" fill="#E2E2E2" width="19.097" height="49.7"/>
	
		<rect x="36.028" y="39.369" transform="matrix(0.7071 0.7071 -0.7071 0.7071 58.7544 -13.419)" fill-rule="evenodd" clip-rule="evenodd" fill="#0095DA" width="19.098" height="49.7"/>
	
		<rect x="36.028" y="66.433" transform="matrix(0.7071 0.7071 -0.7071 0.7071 77.8905 -5.4932)" fill-rule="evenodd" clip-rule="evenodd" fill="#D71F26" width="19.098" height="49.7"/>
</g>
<rect x="114.333" y="37.913" fill-rule="evenodd" clip-rule="evenodd" fill="none" width="313.246" height="52.634"/>
<text transform="matrix(1 0 0 1 114.3335 55.3613)" display="none"><tspan x="0" y="0" display="inline" font-family="'ClearSans'" font-size="24">Локальное производство </tspan><tspan x="0" y="28.8" display="inline" font-family="'ClearSans'" font-size="24">в России и для России</tspan></text>
<g>
	<path d="M121.13,41.758v0.984c0,4.125-0.453,7.412-1.359,9.861s-2.176,3.674-3.809,3.674c-0.508,0-0.988-0.078-1.441-0.234
		l0.387-1.734c0.172,0.07,0.348,0.105,0.527,0.105c1.188,0,2.072-1.084,2.654-3.252s0.873-5.252,0.873-9.252v-2.039h8.906V56.09
		h-2.156V41.758H121.13z"/>
	<path d="M142.189,49.973c0,2.133-0.459,3.746-1.377,4.84s-2.256,1.641-4.014,1.641s-3.102-0.541-4.031-1.623
		s-1.395-2.701-1.395-4.857c0-2.195,0.467-3.832,1.4-4.91s2.275-1.617,4.025-1.617c1.766,0,3.105,0.549,4.02,1.646
		S142.189,47.817,142.189,49.973z M140.103,49.973c0-1.672-0.275-2.887-0.826-3.645s-1.377-1.137-2.479-1.137
		c-1.133,0-1.973,0.381-2.52,1.143s-0.82,1.975-0.82,3.639c0,1.602,0.264,2.789,0.791,3.563s1.377,1.16,2.549,1.16
		c1.117,0,1.947-0.383,2.49-1.148S140.103,51.59,140.103,49.973z"/>
	<path d="M147.521,43.797v5.238h1.723c0.461,0,0.852-0.164,1.172-0.492s0.639-0.881,0.955-1.658s0.623-1.807,0.92-3.088h2.051
		c-0.297,1.336-0.611,2.434-0.943,3.293s-0.66,1.496-0.984,1.91s-0.732,0.68-1.225,0.797c0.586,0.172,1.063,0.449,1.43,0.832
		s0.703,0.955,1.008,1.717s0.676,2.01,1.113,3.744h-2.039c-0.273-0.961-0.518-1.781-0.732-2.461s-0.449-1.232-0.703-1.658
		s-0.553-0.734-0.896-0.926s-0.781-0.287-1.313-0.287h-1.535v5.332h-1.969V43.797H147.521z"/>
	<path d="M163.857,56.09v-1.535c-0.625,0.547-1.254,1-1.887,1.359s-1.348,0.539-2.145,0.539c-1.172,0-2.076-0.357-2.713-1.072
		s-0.955-1.631-0.955-2.748c0-0.844,0.166-1.545,0.498-2.104s0.813-1,1.441-1.324s1.541-0.557,2.736-0.697l3.023-0.27v-0.598
		c0-0.945-0.264-1.59-0.791-1.934s-1.256-0.516-2.186-0.516c-0.828,0-1.467,0.145-1.916,0.434s-0.771,0.602-0.967,0.938
		l-1.652-1.008c0.375-0.68,0.947-1.201,1.717-1.564s1.725-0.545,2.865-0.545c1.766,0,3.031,0.32,3.797,0.961s1.148,1.75,1.148,3.328
		v8.355H163.857z M163.857,49.856l-1.969,0.188c-1.336,0.117-2.277,0.377-2.824,0.779s-0.82,0.99-0.82,1.764
		c0,0.734,0.184,1.262,0.551,1.582s0.918,0.48,1.652,0.48c0.305,0,0.605-0.057,0.902-0.17s0.59-0.254,0.879-0.422
		s0.568-0.359,0.838-0.574s0.533-0.424,0.791-0.627V49.856z"/>
	<path d="M173.337,45.461v0.855c0,1.992-0.17,3.756-0.51,5.291s-0.82,2.697-1.441,3.486s-1.354,1.184-2.197,1.184
		c-0.195,0-0.428-0.023-0.697-0.07s-0.471-0.094-0.604-0.141l0.387-1.758c0.289,0.055,0.535,0.082,0.738,0.082
		c1.602,0,2.402-2.922,2.402-8.766v-1.828h7.137V56.09h-1.969V45.461H173.337z"/>
	<path d="M184.505,48.438h1.922c1.773,0,3.057,0.311,3.85,0.932s1.189,1.639,1.189,3.053c0,1.258-0.385,2.184-1.154,2.777
		s-2.041,0.891-3.814,0.891h-3.961V43.797h1.969V48.438z M189.404,52.399c0-0.641-0.105-1.123-0.316-1.447s-0.549-0.557-1.014-0.697
		s-1.111-0.211-1.939-0.211h-1.629v4.441h1.922c1.102,0,1.873-0.168,2.314-0.504S189.404,53.118,189.404,52.399z"/>
	<path d="M204.018,56.09h-1.969v-5.52h-5.977v5.52h-1.969V43.797h1.969v5.145h5.977v-5.145h1.969V56.09z"/>
	<path d="M218.197,49.973c0,2.133-0.459,3.746-1.377,4.84s-2.256,1.641-4.014,1.641s-3.102-0.541-4.031-1.623
		s-1.395-2.701-1.395-4.857c0-2.195,0.467-3.832,1.4-4.91s2.275-1.617,4.025-1.617c1.766,0,3.105,0.549,4.02,1.646
		S218.197,47.817,218.197,49.973z M216.111,49.973c0-1.672-0.275-2.887-0.826-3.645s-1.377-1.137-2.479-1.137
		c-1.133,0-1.973,0.381-2.52,1.143s-0.82,1.975-0.82,3.639c0,1.602,0.264,2.789,0.791,3.563s1.377,1.16,2.549,1.16
		c1.117,0,1.947-0.383,2.49-1.148S216.111,51.59,216.111,49.973z"/>
	<path d="M223.025,50.184c0,1.625,0.277,2.783,0.832,3.475s1.445,1.037,2.672,1.037c0.547,0,1.027-0.115,1.441-0.346
		s0.813-0.604,1.195-1.119l1.664,1.031c-0.469,0.703-1.039,1.244-1.711,1.623s-1.582,0.568-2.73,0.568
		c-1.828,0-3.193-0.531-4.096-1.594s-1.354-2.668-1.354-4.816c0-2.25,0.439-3.912,1.318-4.986s2.205-1.611,3.979-1.611
		c1.594,0,2.789,0.459,3.586,1.377s1.195,2.33,1.195,4.236v1.125H223.025z M229.049,48.602c-0.016-1.102-0.248-1.957-0.697-2.566
		s-1.178-0.914-2.186-0.914c-0.961,0-1.682,0.275-2.162,0.826s-0.799,1.436-0.955,2.654H229.049z"/>
	<path d="M248.408,56.09V45.461h-5.684V56.09h-2.016V43.797h9.715V56.09H248.408z"/>
	<path d="M264.803,49.856c0,2.016-0.439,3.619-1.318,4.811s-2.088,1.787-3.627,1.787c-1.227,0-2.371-0.457-3.434-1.371v5.637h-2.016
		V43.797h2.016v1.23c0.461-0.445,1.016-0.82,1.664-1.125s1.344-0.457,2.086-0.457c1.461,0,2.598,0.553,3.41,1.658
		S264.803,47.793,264.803,49.856z M262.717,49.903c0-3.109-0.977-4.664-2.93-4.664c-0.641,0-1.254,0.16-1.84,0.48
		s-1.094,0.688-1.523,1.102v6.504c1.047,0.883,2.102,1.324,3.164,1.324c0.914,0,1.664-0.383,2.25-1.148
		S262.717,51.536,262.717,49.903z"/>
	<path d="M278.361,49.973c0,2.133-0.459,3.746-1.377,4.84s-2.256,1.641-4.014,1.641s-3.102-0.541-4.031-1.623
		s-1.395-2.701-1.395-4.857c0-2.195,0.467-3.832,1.4-4.91s2.275-1.617,4.025-1.617c1.766,0,3.105,0.549,4.02,1.646
		S278.361,47.817,278.361,49.973z M276.275,49.973c0-1.672-0.275-2.887-0.826-3.645s-1.377-1.137-2.479-1.137
		c-1.133,0-1.973,0.381-2.52,1.143s-0.82,1.975-0.82,3.639c0,1.602,0.264,2.789,0.791,3.563s1.377,1.16,2.549,1.16
		c1.117,0,1.947-0.383,2.49-1.148S276.275,51.59,276.275,49.973z"/>
	<path d="M283.857,56.09h-2.133V43.797h1.898V53.5l6.023-9.703h2.039V56.09h-1.898v-9.504L283.857,56.09z"/>
	<path d="M296.537,48.848h2.566c0.914,0,1.586-0.129,2.016-0.387s0.645-0.676,0.645-1.254c0-1.344-0.992-2.016-2.977-2.016
		c-0.672,0-1.211,0.133-1.617,0.398s-0.762,0.637-1.066,1.113l-1.652-1.008c0.859-1.5,2.297-2.25,4.313-2.25
		c1.648,0,2.889,0.332,3.721,0.996s1.248,1.563,1.248,2.695c0,0.734-0.191,1.334-0.574,1.799s-0.832,0.779-1.348,0.943
		c0.484,0.172,0.922,0.498,1.313,0.979s0.586,1.135,0.586,1.963c0,2.422-1.672,3.633-5.016,3.633c-1.203,0-2.145-0.213-2.824-0.639
		s-1.211-0.967-1.594-1.623l1.664-1.008c0.367,0.516,0.758,0.896,1.172,1.143s0.949,0.369,1.605,0.369
		c0.883,0,1.607-0.172,2.174-0.516s0.85-0.867,0.85-1.57c0-1.406-0.84-2.109-2.52-2.109h-2.684V48.848z"/>
	<path d="M316.6,52.352c0,1.32-0.447,2.273-1.342,2.859s-2.205,0.879-3.932,0.879h-4.395V43.797h4.348
		c1.766,0,3.002,0.215,3.709,0.645s1.061,1.176,1.061,2.238c0,1.43-0.633,2.398-1.898,2.906c0.844,0.188,1.463,0.5,1.857,0.938
		S316.6,51.571,316.6,52.352z M314.033,46.997c0-0.688-0.232-1.131-0.697-1.33s-1.174-0.299-2.127-0.299H308.9v3.645h2.156
		C313.041,49.012,314.033,48.34,314.033,46.997z M314.537,52.399c0-0.711-0.232-1.189-0.697-1.436s-1.264-0.369-2.396-0.369H308.9
		v3.891h1.723c1.297,0,2.273-0.133,2.93-0.398S314.537,53.258,314.537,52.399z"/>
	<path d="M329.994,49.973c0,2.133-0.459,3.746-1.377,4.84s-2.256,1.641-4.014,1.641s-3.102-0.541-4.031-1.623
		s-1.395-2.701-1.395-4.857c0-2.195,0.467-3.832,1.4-4.91s2.275-1.617,4.025-1.617c1.766,0,3.105,0.549,4.02,1.646
		S329.994,47.817,329.994,49.973z M327.908,49.973c0-1.672-0.275-2.887-0.826-3.645s-1.377-1.137-2.479-1.137
		c-1.133,0-1.973,0.381-2.52,1.143s-0.82,1.975-0.82,3.639c0,1.602,0.264,2.789,0.791,3.563s1.377,1.16,2.549,1.16
		c1.117,0,1.947-0.383,2.49-1.148S327.908,51.59,327.908,49.973z"/>
	<path d="M331.154,58.797v-4.313h1.148c0.75-1.477,1.32-3.156,1.711-5.039s0.586-3.766,0.586-5.648h6.938v10.688h1.969v4.313h-1.922
		V56.09h-8.52v2.707H331.154z M339.568,45.415h-3.07c-0.094,1.672-0.33,3.283-0.709,4.834s-0.893,2.963-1.541,4.236h5.32V45.415z"/>
	<path d="M355.002,54.192c-0.383,0.656-0.914,1.197-1.594,1.623s-1.617,0.639-2.813,0.639c-1.805,0-3.164-0.545-4.078-1.635
		s-1.371-2.705-1.371-4.846s0.453-3.764,1.359-4.869s2.242-1.658,4.008-1.658c2.023,0,3.465,0.75,4.324,2.25l-1.652,1.008
		c-0.305-0.477-0.662-0.848-1.072-1.113s-0.951-0.398-1.623-0.398c-1.18,0-2.018,0.428-2.514,1.283s-0.744,2.037-0.744,3.545
		c0,1.148,0.117,2.043,0.352,2.684s0.6,1.133,1.096,1.477s1.127,0.516,1.893,0.516c0.656,0,1.191-0.123,1.605-0.369
		s0.805-0.627,1.172-1.143L355.002,54.192z"/>
	<path d="M365.877,45.415h-3.938V56.09h-1.969V45.415h-3.938v-1.617h9.844V45.415z"/>
	<path d="M377.725,52.352c0,1.32-0.447,2.273-1.342,2.859s-2.205,0.879-3.932,0.879h-4.395V43.797h4.348
		c1.766,0,3.002,0.215,3.709,0.645s1.061,1.176,1.061,2.238c0,1.43-0.633,2.398-1.898,2.906c0.844,0.188,1.463,0.5,1.857,0.938
		S377.725,51.571,377.725,52.352z M375.158,46.997c0-0.688-0.232-1.131-0.697-1.33s-1.174-0.299-2.127-0.299h-2.309v3.645h2.156
		C374.166,49.012,375.158,48.34,375.158,46.997z M375.662,52.399c0-0.711-0.232-1.189-0.697-1.436s-1.264-0.369-2.396-0.369h-2.543
		v3.891h1.723c1.297,0,2.273-0.133,2.93-0.398S375.662,53.258,375.662,52.399z"/>
	<path d="M391.119,49.973c0,2.133-0.459,3.746-1.377,4.84s-2.256,1.641-4.014,1.641s-3.102-0.541-4.031-1.623
		s-1.395-2.701-1.395-4.857c0-2.195,0.467-3.832,1.4-4.91s2.275-1.617,4.025-1.617c1.766,0,3.105,0.549,4.02,1.646
		S391.119,47.817,391.119,49.973z M389.033,49.973c0-1.672-0.275-2.887-0.826-3.645s-1.377-1.137-2.479-1.137
		c-1.133,0-1.973,0.381-2.52,1.143s-0.82,1.975-0.82,3.639c0,1.602,0.264,2.789,0.791,3.563s1.377,1.16,2.549,1.16
		c1.117,0,1.947-0.383,2.49-1.148S389.033,51.59,389.033,49.973z"/>
	<path d="M125.994,81.152c0,1.32-0.447,2.273-1.342,2.859s-2.205,0.879-3.932,0.879h-4.395V72.598h4.348
		c1.766,0,3.002,0.215,3.709,0.645s1.061,1.176,1.061,2.238c0,1.43-0.633,2.398-1.898,2.906c0.844,0.188,1.463,0.5,1.857,0.938
		S125.994,80.371,125.994,81.152z M123.427,75.797c0-0.688-0.232-1.131-0.697-1.33s-1.174-0.299-2.127-0.299h-2.309v3.645h2.156
		C122.435,77.813,123.427,77.141,123.427,75.797z M123.931,81.199c0-0.711-0.232-1.189-0.697-1.436s-1.264-0.369-2.396-0.369h-2.543
		v3.891h1.723c1.297,0,2.273-0.133,2.93-0.398S123.931,82.059,123.931,81.199z"/>
	<path d="M146.373,73.852c0,1.953-0.459,3.365-1.377,4.236s-2.408,1.307-4.471,1.307h-2.543v5.496h-2.168V68.672h4.805
		c2.023,0,3.488,0.418,4.395,1.254S146.373,72.07,146.373,73.852z M144.099,73.898c0-1.133-0.281-1.961-0.844-2.484
		s-1.523-0.785-2.883-0.785h-2.391v6.797h2.086c1.141,0,1.975-0.111,2.502-0.334s0.914-0.582,1.16-1.078
		S144.099,74.813,144.099,73.898z"/>
	<path d="M159.486,78.773c0,2.133-0.459,3.746-1.377,4.84s-2.256,1.641-4.014,1.641s-3.102-0.541-4.031-1.623
		s-1.395-2.701-1.395-4.857c0-2.195,0.467-3.832,1.4-4.91s2.275-1.617,4.025-1.617c1.766,0,3.105,0.549,4.02,1.646
		S159.486,76.617,159.486,78.773z M157.4,78.773c0-1.672-0.275-2.887-0.826-3.645s-1.377-1.137-2.479-1.137
		c-1.133,0-1.973,0.381-2.52,1.143s-0.82,1.975-0.82,3.639c0,1.602,0.264,2.789,0.791,3.563s1.377,1.16,2.549,1.16
		c1.117,0,1.947-0.383,2.49-1.148S157.4,80.391,157.4,78.773z"/>
	<path d="M172.083,82.992c-0.383,0.656-0.914,1.197-1.594,1.623s-1.617,0.639-2.813,0.639c-1.805,0-3.164-0.545-4.078-1.635
		s-1.371-2.705-1.371-4.846s0.453-3.764,1.359-4.869s2.242-1.658,4.008-1.658c2.023,0,3.465,0.75,4.324,2.25l-1.652,1.008
		c-0.305-0.477-0.662-0.848-1.072-1.113s-0.951-0.398-1.623-0.398c-1.18,0-2.018,0.428-2.514,1.283s-0.744,2.037-0.744,3.545
		c0,1.148,0.117,2.043,0.352,2.684s0.6,1.133,1.096,1.477s1.127,0.516,1.893,0.516c0.656,0,1.191-0.123,1.605-0.369
		s0.805-0.627,1.172-1.143L172.083,82.992z"/>
	<path d="M184.154,82.992c-0.383,0.656-0.914,1.197-1.594,1.623s-1.617,0.639-2.813,0.639c-1.805,0-3.164-0.545-4.078-1.635
		s-1.371-2.705-1.371-4.846s0.453-3.764,1.359-4.869s2.242-1.658,4.008-1.658c2.023,0,3.465,0.75,4.324,2.25l-1.652,1.008
		c-0.305-0.477-0.662-0.848-1.072-1.113s-0.951-0.398-1.623-0.398c-1.18,0-2.018,0.428-2.514,1.283s-0.744,2.037-0.744,3.545
		c0,1.148,0.117,2.043,0.352,2.684s0.6,1.133,1.096,1.477s1.127,0.516,1.893,0.516c0.656,0,1.191-0.123,1.605-0.369
		s0.805-0.627,1.172-1.143L184.154,82.992z"/>
	<path d="M189.123,84.891h-2.133V72.598h1.898v9.703l6.023-9.703h2.039v12.293h-1.898v-9.504L189.123,84.891z"/>
	<path d="M203.068,84.891h-2.133V72.598h1.898v9.703l6.023-9.703h2.039v12.293h-1.898v-9.504L203.068,84.891z"/>
	<path d="M223.494,84.891h-2.133V72.598h1.898v9.703l6.023-9.703h2.039v12.293h-1.898v-9.504L223.494,84.891z"/>
	<path d="M240.064,87.598v-4.313h1.148c0.75-1.477,1.32-3.156,1.711-5.039s0.586-3.766,0.586-5.648h6.938v10.688h1.969v4.313h-1.922
		v-2.707h-8.52v2.707H240.064z M248.479,74.215h-3.07c-0.094,1.672-0.33,3.283-0.709,4.834s-0.893,2.963-1.541,4.236h5.32V74.215z"
		/>
	<path d="M258.85,74.262v0.855c0,1.992-0.17,3.756-0.51,5.291s-0.82,2.697-1.441,3.486s-1.354,1.184-2.197,1.184
		c-0.195,0-0.428-0.023-0.697-0.07s-0.471-0.094-0.604-0.141l0.387-1.758c0.289,0.055,0.535,0.082,0.738,0.082
		c1.602,0,2.402-2.922,2.402-8.766v-1.828h7.137v12.293h-1.969V74.262H258.85z"/>
	<path d="M266.678,84.891l3.188-5.215c-0.828-0.227-1.463-0.65-1.904-1.271s-0.662-1.428-0.662-2.42c0-1.25,0.381-2.127,1.143-2.631
		s1.959-0.756,3.592-0.756h4.371v12.293h-1.969v-5.016h-2.566l-2.953,5.016H266.678z M269.291,76.102
		c0,0.609,0.096,1.059,0.287,1.348s0.502,0.498,0.932,0.627s1.059,0.193,1.887,0.193h2.039v-4.102h-2.168
		c-1.156,0-1.941,0.137-2.355,0.41S269.291,75.359,269.291,76.102z"/>
	<path d="M297.568,73.852c0,1.953-0.459,3.365-1.377,4.236s-2.408,1.307-4.471,1.307h-2.543v5.496h-2.168V68.672h4.805
		c2.023,0,3.488,0.418,4.395,1.254S297.568,72.07,297.568,73.852z M295.295,73.898c0-1.133-0.281-1.961-0.844-2.484
		s-1.523-0.785-2.883-0.785h-2.391v6.797h2.086c1.141,0,1.975-0.111,2.502-0.334s0.914-0.582,1.16-1.078
		S295.295,74.813,295.295,73.898z"/>
	<path d="M310.682,78.773c0,2.133-0.459,3.746-1.377,4.84s-2.256,1.641-4.014,1.641s-3.102-0.541-4.031-1.623
		s-1.395-2.701-1.395-4.857c0-2.195,0.467-3.832,1.4-4.91s2.275-1.617,4.025-1.617c1.766,0,3.105,0.549,4.02,1.646
		S310.682,76.617,310.682,78.773z M308.596,78.773c0-1.672-0.275-2.887-0.826-3.645s-1.377-1.137-2.479-1.137
		c-1.133,0-1.973,0.381-2.52,1.143s-0.82,1.975-0.82,3.639c0,1.602,0.264,2.789,0.791,3.563s1.377,1.16,2.549,1.16
		c1.117,0,1.947-0.383,2.49-1.148S308.596,80.391,308.596,78.773z"/>
	<path d="M323.279,82.992c-0.383,0.656-0.914,1.197-1.594,1.623s-1.617,0.639-2.813,0.639c-1.805,0-3.164-0.545-4.078-1.635
		s-1.371-2.705-1.371-4.846s0.453-3.764,1.359-4.869s2.242-1.658,4.008-1.658c2.023,0,3.465,0.75,4.324,2.25l-1.652,1.008
		c-0.305-0.477-0.662-0.848-1.072-1.113s-0.951-0.398-1.623-0.398c-1.18,0-2.018,0.428-2.514,1.283s-0.744,2.037-0.744,3.545
		c0,1.148,0.117,2.043,0.352,2.684s0.6,1.133,1.096,1.477s1.127,0.516,1.893,0.516c0.656,0,1.191-0.123,1.605-0.369
		s0.805-0.627,1.172-1.143L323.279,82.992z"/>
	<path d="M335.35,82.992c-0.383,0.656-0.914,1.197-1.594,1.623s-1.617,0.639-2.813,0.639c-1.805,0-3.164-0.545-4.078-1.635
		s-1.371-2.705-1.371-4.846s0.453-3.764,1.359-4.869s2.242-1.658,4.008-1.658c2.023,0,3.465,0.75,4.324,2.25l-1.652,1.008
		c-0.305-0.477-0.662-0.848-1.072-1.113s-0.951-0.398-1.623-0.398c-1.18,0-2.018,0.428-2.514,1.283s-0.744,2.037-0.744,3.545
		c0,1.148,0.117,2.043,0.352,2.684s0.6,1.133,1.096,1.477s1.127,0.516,1.893,0.516c0.656,0,1.191-0.123,1.605-0.369
		s0.805-0.627,1.172-1.143L335.35,82.992z"/>
	<path d="M340.318,84.891h-2.133V72.598h1.898v9.703l6.023-9.703h2.039v12.293h-1.898v-9.504L340.318,84.891z"/>
	<path d="M354.264,84.891h-2.133V72.598h1.898v9.703l6.023-9.703h2.039v12.293h-1.898v-9.504L354.264,84.891z"/>
</g>
</svg>
