<?xml version="1.0" encoding="utf-8"?>
<!-- Generator: Adobe Illustrator 16.0.0, SVG Export Plug-In . SVG Version: 6.00 Build 0)  -->
<!DOCTYPE svg PUBLIC "-//W3C//DTD SVG 1.1//EN" "http://www.w3.org/Graphics/SVG/1.1/DTD/svg11.dtd">
<svg version="1.1" id="nnz_x5F_logo" xmlns="http://www.w3.org/2000/svg" xmlns:xlink="http://www.w3.org/1999/xlink" x="0px"
	 y="0px" width="300px" height="85.5px" viewBox="0 0 300 85.5" enable-background="new 0 0 300 85.5" xml:space="preserve">
<g id="gp">
	<path fill-rule="evenodd" clip-rule="evenodd" fill="#FFFFFF" d="M20.665,81.417v-8.976h-1.676v8.976H20.665L20.665,81.417z
		 M23.286,74.763h-0.921v6.654h0.945v-4.452c0-0.479,0.048-0.861,0.431-1.209c0.251-0.238,0.586-0.37,0.934-0.37
		c0.766,0,0.994,0.466,0.994,1.161v4.87h0.945v-5.134c0-1.173-0.646-1.7-1.64-1.7c-0.718,0-1.209,0.336-1.688,0.911V74.763
		L23.286,74.763z M31.604,78.809c0,0.754-0.276,1.986-1.257,1.986c-1.292,0-1.341-1.305-1.341-2.74c0-2.047,0.515-2.669,1.305-2.669
		c1.268,0,1.293,1.687,1.293,2.598V78.809L31.604,78.809z M31.604,75.445H31.58c-0.442-0.575-0.849-0.862-1.532-0.862
		c-1.423,0-2.07,1.544-1.998,3.496c0.023,0.586-0.144,3.52,1.95,3.52c0.802,0,1.209-0.265,1.616-1.056h0.024v0.874h0.909v-8.976
		h-0.945V75.445L31.604,75.445z M37.588,81.417h0.946v-6.654h-0.946v4.273c0,0.383-0.06,0.838-0.275,1.173
		c-0.264,0.383-0.682,0.586-1.137,0.586c-0.67,0-0.85-0.299-0.85-0.861v-5.171h-0.945v5.136c0,1.172,0.61,1.7,1.603,1.7
		c0.647,0,1.257-0.373,1.581-1.056h0.023V81.417L37.588,81.417z M43.991,76.547c0.023-1.365-0.742-1.964-2.059-1.964
		c-1.149,0-1.951,0.73-1.951,1.88c0,1.16,0.599,1.508,1.628,1.891c0.683,0.287,1.64,0.371,1.64,1.316
		c0,0.814-0.503,1.125-1.269,1.125c-0.886,0-1.161-0.502-1.125-1.316h-0.898c0,0.455-0.024,0.898,0.371,1.425
		c0.347,0.502,1.065,0.708,1.651,0.695c1.364,0.013,2.25-0.779,2.25-2.048c0-1.245-0.958-1.484-1.915-1.915
		c-0.647-0.275-1.353-0.383-1.353-1.245c0-0.693,0.383-1.005,1.053-1.005c0.802,0,1.089,0.37,1.054,1.161H43.991L43.991,76.547z
		 M46.72,72.956h-0.934v1.807h-0.922v0.802h0.922v4.764c0,1.006,0.419,1.103,0.981,1.089h1.041v-0.801h-0.634
		c-0.527,0-0.443-0.288-0.443-0.515v-4.537h1.102v-0.802H46.72V72.956L46.72,72.956z M49.963,74.763h-0.91v6.654h0.946v-4.033
		c0-1.208,0.718-1.974,1.939-1.759v-0.934c-0.993-0.084-1.556,0.287-1.95,1.16h-0.025V74.763L49.963,74.763z M53.877,81.417v-6.654
		h-0.945v6.654H53.877L53.877,81.417z M53.877,73.638v-1.196h-0.945v1.196H53.877L53.877,73.638z M58.162,79.443
		c0,1.076-0.79,1.352-1.149,1.352c-0.766,0-0.933-0.431-0.933-1.102c0-0.453,0.144-0.944,0.586-1.148
		c0.503-0.239,1.03-0.442,1.497-0.718V79.443L58.162,79.443z M59.718,80.724c-0.132,0.012-0.275,0.023-0.407-0.013
		c-0.192-0.095-0.167-0.334-0.167-0.502v-3.818c0-0.155,0.167-1.808-1.808-1.808c-1.341,0-2.022,0.599-1.975,1.976h0.85
		c-0.012-0.777,0.108-1.173,0.97-1.173c0.766,0,1.054,0.287,1.054,1.041c0,0.347,0.023,0.61-0.18,0.766
		c-0.12,0.096-1.46,0.599-1.999,0.838c-0.921,0.407-0.958,1.364-0.958,1.616c0,1.209,0.383,1.952,1.712,1.952
		c0.634,0,1.245-0.492,1.472-1.079h0.024c0.096,0.911,0.395,0.983,1.196,0.948c0.072-0.024,0.144-0.037,0.216-0.051V80.724
		L59.718,80.724z M61.848,81.417v-8.976h-0.945v8.976H61.848L61.848,81.417z M65.187,73.759h0.766c0.945,0,1.353,0.154,1.353,1.185
		c0,1.088-0.491,1.4-1.221,1.4h-0.898V73.759L65.187,73.759z M65.187,81.417v-3.758h1.125c0.646,0.013,1.352-0.119,1.878-0.538
		c0.634-0.503,0.838-1.365,0.838-2.131c0-1.257-0.491-2.549-2.095-2.549h-3.423v8.976H65.187L65.187,81.417z M73.792,78.222
		c-0.036,0.574,0.071,2.06-0.85,2.06c-1.149,0-1.209-1.209-1.209-1.951v-2.49c0-0.693-0.107-2.262,1.209-2.262
		c0.826,0,0.766,1.077,0.838,1.651h1.651c0.012-0.227-0.012-0.454-0.036-0.682c-0.119-1.532-0.958-2.298-2.453-2.321
		c-2.681,0-2.86,1.698-2.933,3.985v1.28c0,2.393,0.18,4.143,2.933,4.143c1.867,0,2.417-1.258,2.501-2.898
		c0.012-0.167,0.024-0.347,0.036-0.515H73.792L73.792,78.222z"/>
	<polygon fill-rule="evenodd" clip-rule="evenodd" fill="#FFFFFF" points="36.338,5.416 19.638,5.416 19.601,22.002 23.653,30.745 
		23.618,68.927 36.043,68.927 36.059,40.185 53.757,68.927 66.182,68.927 66.345,30.745 70.189,21.585 70.152,5.416 53.857,5.416 
		53.82,49.658 36.265,21.433 36.338,5.416 	"/>
	<path fill-rule="evenodd" clip-rule="evenodd" fill="#FFFFFF" d="M71.614,5.738c28.413-3.295,18.262,25.191-4.321,41.437
		c0-1.013,0.109-2.025,0.108-3.037c4.486-2.776,12.963-11.388,16.76-19.792c4.367-9.665,4.254-17.989-12.439-16.438
		C71.686,7.112,71.65,6.533,71.614,5.738L71.614,5.738z M39.383,5.29h11.646v35.167L39.383,21.183V5.29L39.383,5.29z M20.179,26.594
		c0.58,0.58,0.618,1.377,1.198,1.958c-31.432,28.503-13.165,38.457,1.071,35.829c0.083,1.078,0.025,1.332,0.108,2.41
		C-5.231,68.963-3.678,46.451,20.179,26.594L20.179,26.594z M38.666,68.975l-0.001-20.318l12.212,20.318H38.666L38.666,68.975z"/>
	<path fill-rule="evenodd" clip-rule="evenodd" fill="#FFFFFF" d="M110.973,34.26V22.342h6.81V34.26h4.866V8.2h-4.866v10.32h-6.81
		V8.2h-4.865V34.26H110.973L110.973,34.26z M146.842,34.26V8.2h-5.039l-3.787,9.486c-1.251,3.022-2.294,6.115-3.475,10.354h-0.069
		c0.174-2.363,0.348-4.899,0.487-7.401c0.139-2.502,0.243-5.003,0.243-7.332V8.2h-4.865V34.26h5.073l3.788-9.278
		c1.286-3.093,2.328-6.254,3.475-10.354h0.069c-0.174,2.154-0.382,4.795-0.521,7.436c-0.14,2.606-0.243,5.212-0.243,7.297v4.899
		H146.842L146.842,34.26z M168.116,34.26v-3.822h-8.826v-8.026h8.132v-3.822h-8.132v-6.568h8.826V8.2h-13.69V34.26H168.116
		L168.116,34.26z M179.801,34.26V22.342h6.811V34.26h4.865V8.2h-4.865v10.32h-6.811V8.2h-4.865V34.26H179.801L179.801,34.26z
		 M208.825,30.438h-4.795V8.2h-4.866V34.26h24.186V8.2h-4.866v22.238h-4.794V8.2h-4.864V30.438L208.825,30.438z M234.27,34.26
		l1.286-6.602h5.698l1.285,6.602h5.212L241.844,8.2h-6.567l-6.22,26.061H234.27L234.27,34.26z M237.778,16.435
		c0.244-1.216,0.348-2.397,0.487-3.614c0.034-0.59,0.104-1.181,0.174-1.737h0.069c0.069,0.556,0.139,1.147,0.173,1.737
		c0.14,1.217,0.243,2.398,0.487,3.614l1.32,7.401h-4.17L237.778,16.435L237.778,16.435z M258.289,34.26V22.342h6.811V34.26h4.864
		V8.2H265.1v10.32h-6.811V8.2h-4.864V34.26H258.289L258.289,34.26z M296.235,34.284v-3.846h-2.077V8.2h-4.864v22.238h-6.811V8.2
		h-4.865V34.26h13.517L296.235,34.284L296.235,34.284z M107.292,69.199l1.286-6.601h5.699l1.286,6.601h5.212l-5.907-26.06H108.3
		l-6.22,26.06H107.292L107.292,69.199z M110.802,51.375c0.243-1.216,0.347-2.397,0.486-3.613c0.035-0.592,0.104-1.182,0.175-1.738
		h0.069c0.069,0.557,0.139,1.146,0.173,1.738c0.139,1.216,0.243,2.397,0.486,3.613l1.32,7.4h-4.169L110.802,51.375L110.802,51.375z
		 M128.21,65.378V57.49h1.876c3.022,0,3.579,1.182,3.579,3.995c0,1.321-0.173,3.023-1.494,3.614
		c-0.869,0.383-1.912,0.278-2.919,0.278H128.21L128.21,65.378z M128.21,53.668v-6.707h2.258c2.224,0.07,2.641,1.043,2.641,2.989
		c0,1.25-0.069,2.153-0.521,2.814c-0.764,0.973-2.294,0.903-3.475,0.903H128.21L128.21,53.668z M131.927,69.199
		c3.475,0,5.352-1.389,6.393-4.69c0.279-1.043,0.348-2.12,0.348-3.196c0-3.371-1.042-5.664-3.788-6.046v-0.07
		c2.641-0.973,3.127-3.196,3.127-5.455c0-1.771-0.174-3.266-1.286-4.69c-1.39-1.772-3.44-1.911-5.524-1.911h-7.853v26.06H131.927
		L131.927,69.199z M140.371,46.961h5.699v22.238h4.865V46.961h5.663V43.14h-16.227V46.961L140.371,46.961z M158.649,57.803
		c0,6.949,0.521,12.028,8.513,12.028c7.991,0,8.513-5.079,8.513-12.028v-3.718c-0.208-6.637-0.729-11.571-8.513-11.571
		s-8.305,4.934-8.513,11.571V57.803L158.649,57.803z M163.653,53.008c0-2.016-0.314-6.567,3.509-6.567
		c3.614,0,3.51,4.621,3.51,6.706v6.672c0,2.501-0.034,6.08-3.51,6.08c-3.335,0-3.509-3.51-3.509-5.663V53.008L163.653,53.008z
		 M184.953,61c0-5.178-0.104-10.354-0.418-15.532h0.174l5.107,23.731h2.954l5.213-23.731h0.069
		c-0.313,5.177-0.418,10.354-0.418,15.532v8.199h4.864V43.14h-7.713l-2.606,12.092c-0.347,1.703-0.521,3.44-0.765,6.011h-0.069
		c-0.209-2.015-0.486-4.029-0.904-6.011l-2.604-12.092h-7.749v26.06h4.865V61L184.953,61z M210.317,69.199l1.286-6.601h5.698
		l1.286,6.601h5.212l-5.907-26.06h-6.567l-6.22,26.06H210.317L210.317,69.199z M213.827,51.375c0.243-1.216,0.348-2.397,0.485-3.613
		c0.035-0.592,0.104-1.182,0.176-1.738h0.069c0.069,0.557,0.138,1.146,0.173,1.738c0.14,1.216,0.243,2.397,0.486,3.613l1.32,7.4
		h-4.169L213.827,51.375L213.827,51.375z M222.132,46.961h5.698v22.238h4.865V46.961h5.663V43.14h-16.227V46.961L222.132,46.961z
		 M257.782,69.199V43.14h-5.038l-3.787,9.485c-1.252,3.023-2.293,6.116-3.475,10.354h-0.07c0.174-2.361,0.349-4.898,0.486-7.4
		c0.14-2.502,0.244-5.004,0.244-7.332V43.14h-4.865v26.06h5.073l3.787-9.277c1.286-3.091,2.329-6.254,3.475-10.354h0.069
		c-0.174,2.153-0.382,4.794-0.521,7.436c-0.139,2.605-0.243,5.212-0.243,7.297v4.898H257.782L257.782,69.199z M267.373,69.199v-7.47
		l1.701-2.815l4.588,10.285h5.49l-6.741-14.871l6.428-11.188h-5.49l-2.85,5.316c-1.042,1.911-2.293,4.204-3.057,6.255h-0.069V43.14
		h-4.865v26.06H267.373L267.373,69.199z M283.703,69.199l1.286-6.601h5.699l1.285,6.601h5.212l-5.907-26.06h-6.567l-6.22,26.06
		H283.703L283.703,69.199z M287.213,51.375c0.243-1.216,0.348-2.397,0.485-3.613c0.036-0.592,0.105-1.182,0.176-1.738h0.069
		c0.068,0.557,0.138,1.146,0.173,1.738c0.14,1.216,0.243,2.397,0.486,3.613l1.32,7.4h-4.169L287.213,51.375L287.213,51.375z"/>
	<polygon fill-rule="evenodd" clip-rule="evenodd" fill="#FFFFFF" points="105.777,37.979 296.118,37.979 296.118,39.327 
		105.777,39.327 105.777,37.979 	"/>
</g>
</svg>
