<?xml version="1.0" encoding="utf-8"?>
<!-- Generator: Adobe Illustrator 16.0.0, SVG Export Plug-In . SVG Version: 6.00 Build 0)  -->
<!DOCTYPE svg PUBLIC "-//W3C//DTD SVG 1.1//EN" "http://www.w3.org/Graphics/SVG/1.1/DTD/svg11.dtd">
<svg version="1.1" id="Capa_1" xmlns="http://www.w3.org/2000/svg" xmlns:xlink="http://www.w3.org/1999/xlink" x="0px" y="0px"
	 viewBox="0 0 623.621 870.24" enable-background="new 0 0 623.621 870.24"
	 xml:space="preserve">
<path d="M603.451,302.906H538.06c-6.223,0-11.271,5.049-11.271,11.271s5.049,11.271,11.271,11.271h65.391
	c6.223,0,11.271-5.048,11.271-11.271S609.673,302.906,603.451,302.906z"/>
<path d="M538.06,234.098h29.687c6.229,0,11.271-5.048,11.271-11.271c0-6.229-5.043-11.271-11.271-11.271H538.06
	c-6.223,0-11.271,5.043-11.271,11.271C526.789,229.05,531.837,234.098,538.06,234.098z"/>
<path d="M538.06,142.742h40.212c6.223,0,11.271-5.042,11.271-11.271c0-6.223-5.049-11.271-11.271-11.271H538.06
	c-6.223,0-11.271,5.049-11.271,11.271C526.789,137.699,531.837,142.742,538.06,142.742z"/>
<path d="M578.272,485.612H538.06c-6.223,0-11.271,5.043-11.271,11.271c0,6.223,5.049,11.271,11.271,11.271h40.212
	c6.223,0,11.271-5.048,11.271-11.271C589.543,490.655,584.495,485.612,578.272,485.612z"/>
<path d="M538.06,416.798h29.687c6.229,0,11.271-5.043,11.271-11.271c0-6.223-5.043-11.271-11.271-11.271H538.06
	c-6.223,0-11.271,5.048-11.271,11.271C526.789,411.755,531.837,416.798,538.06,416.798z"/>
<path d="M202.024,295.949c18.645,9.957,19.766,12.21,24.727,12.21c11.6,0,15.598-15.463,5.518-21.11l-19.237-10.767l14.147-5.794
	c5.759-2.36,8.518-8.947,6.158-14.706s-8.941-8.512-14.7-6.158l-30.732,12.586l-40.318-22.578l40.318-22.578
	c31.601,12.645,31.12,13.432,35,13.432c12.31,0,15.668-17.036,4.273-21.703l-14.142-5.794l19.231-10.772
	c5.43-3.035,7.373-9.909,4.333-15.339c-3.041-5.43-9.91-7.367-15.346-4.327l-19.231,10.767l2.454-15.087
	c0.998-6.141-3.176-11.935-9.322-12.933c-6.134-0.998-11.935,3.17-12.932,9.316l-5.325,32.774l-41.111,23.018v-47.116l25.995-20.658
	c4.872-3.875,5.683-10.96,1.814-15.839c-3.875-4.872-10.966-5.683-15.839-1.808l-11.97,9.51v-22.043
	c0-6.223-5.042-11.271-11.271-11.271c-6.223,0-11.271,5.048-11.271,11.271v22.043l-11.964-9.51
	c-4.873-3.875-11.964-3.064-15.838,1.814c-3.875,4.873-3.064,11.958,1.814,15.833l25.988,20.664v47.11L72.141,197.39l-5.33-32.774
	c-0.998-6.146-6.786-10.314-12.933-9.316c-6.141,0.998-10.314,6.792-9.316,12.933l2.454,15.087l-19.237-10.767
	c-5.43-3.041-12.298-1.104-15.339,4.327s-1.104,12.305,4.327,15.339l19.237,10.772l-14.148,5.794
	c-5.759,2.36-8.512,8.941-6.158,14.706c2.366,5.765,8.953,8.512,14.706,6.158l30.726-12.586l40.318,22.578l-40.318,22.572
	l-30.726-12.586c-5.765-2.354-12.346,0.399-14.706,6.164c-2.36,5.759,0.399,12.34,6.158,14.7l14.148,5.794l-19.237,10.772
	c-10.08,5.641-6.076,21.104,5.518,21.104c4.96,0,6.093-2.26,24.732-12.21l-2.454,15.093c-1.115,6.857,4.18,13.08,11.142,13.08
	c5.424,0,10.208-3.933,11.107-9.463l5.33-32.774l41.105-23.018v47.11L87.257,326.64c-4.878,3.869-5.688,10.96-1.814,15.833
	c3.875,4.878,10.966,5.688,15.838,1.814l11.964-9.51v22.043c0,6.223,5.049,11.271,11.271,11.271c6.229,0,11.271-5.049,11.271-11.271
	v-22.043c10.408,7.538,12.651,11.958,18.973,11.958c10.626-0.006,15.375-13.461,7.021-20.094l-25.995-20.664v-47.11l41.111,23.018
	l5.325,32.774c0.898,5.53,5.682,9.463,11.113,9.463c6.974,0,12.251-6.24,11.142-13.08L202.024,295.949z"/>
<path d="M489.124,516.86V153.227c0-56.215-45.73-101.952-101.946-101.952c-56.215,0-101.951,45.737-101.951,101.952V516.86
	c-42.114,31.9-67.082,81.857-67.082,134.833c0,93.205,75.829,169.033,169.033,169.033c93.205,0,169.034-75.828,169.034-169.033
	C556.211,598.717,531.244,548.76,489.124,516.86z M387.177,798.183c-80.776,0-146.49-65.713-146.49-146.49
	c0-47.621,23.288-92.442,62.297-119.887c3-2.113,4.784-5.554,4.784-9.223V153.227c0-43.788,35.622-79.41,79.409-79.41
	c43.782,0,79.404,35.622,79.404,79.41v369.356c0,3.669,1.784,7.109,4.784,9.223c39.015,27.45,62.303,72.266,62.303,119.887
	C533.668,732.47,467.949,798.183,387.177,798.183z"/>
<path d="M436.513,539.197v-385.97c0-27.209-22.132-49.341-49.336-49.341c-27.203,0-49.341,22.132-49.341,49.341v34.9
	c0,6.223,5.049,11.271,11.271,11.271c6.229,0,11.271-5.048,11.271-11.271v-34.9c0-14.776,12.022-26.799,26.798-26.799
	c14.776,0,26.793,12.023,26.793,26.799v334.011h-53.591v-253.92c0-6.229-5.043-11.271-11.271-11.271
	c-6.223,0-11.271,5.042-11.271,11.271v305.879c-42.707,19.25-70.885,62.345-70.885,109.631c0,66.295,53.931,120.227,120.22,120.227
	c66.295,0,120.227-53.932,120.227-120.227C507.405,601.541,479.22,558.447,436.513,539.197z M387.177,746.512
	c-53.867,0-97.683-43.817-97.683-97.685c0-40.576,25.536-77.36,63.552-91.521c4.409-1.644,7.339-5.858,7.339-10.561v-36.966h53.585
	v36.966c0,4.702,2.93,8.917,7.338,10.561c38.018,14.16,63.554,50.938,63.554,91.521
	C484.862,702.695,441.039,746.512,387.177,746.512z"/>
</svg>
