<?xml version="1.0" encoding="utf-8"?>
<!-- Generator: Adobe Illustrator 16.0.0, SVG Export Plug-In . SVG Version: 6.00 Build 0)  -->
<!DOCTYPE svg PUBLIC "-//W3C//DTD SVG 1.1//EN" "http://www.w3.org/Graphics/SVG/1.1/DTD/svg11.dtd">
<svg version="1.1" id="Capa_1" xmlns="http://www.w3.org/2000/svg" xmlns:xlink="http://www.w3.org/1999/xlink" x="0px" y="0px"
	viewBox="0 0 623.621 870.24" enable-background="new 0 0 623.621 870.24"
	 xml:space="preserve">
<path d="M603.451,302.906H538.06c-6.223,0-11.271,5.049-11.271,11.271s5.049,11.271,11.271,11.271h65.391
	c6.223,0,11.271-5.048,11.271-11.271S609.673,302.906,603.451,302.906z"/>
<path d="M538.06,234.098h29.687c6.229,0,11.271-5.048,11.271-11.271c0-6.229-5.043-11.271-11.271-11.271H538.06
	c-6.223,0-11.271,5.043-11.271,11.271C526.789,229.05,531.837,234.098,538.06,234.098z"/>
<path d="M538.06,142.742h40.212c6.223,0,11.271-5.042,11.271-11.271c0-6.223-5.049-11.271-11.271-11.271H538.06
	c-6.223,0-11.271,5.049-11.271,11.271C526.789,137.699,531.837,142.742,538.06,142.742z"/>
<path d="M578.272,485.612H538.06c-6.223,0-11.271,5.043-11.271,11.271c0,6.223,5.049,11.271,11.271,11.271h40.212
	c6.223,0,11.271-5.048,11.271-11.271C589.543,490.655,584.495,485.612,578.272,485.612z"/>
<path d="M538.06,416.798h29.687c6.229,0,11.271-5.043,11.271-11.271c0-6.223-5.043-11.271-11.271-11.271H538.06
	c-6.223,0-11.271,5.048-11.271,11.271C526.789,411.755,531.837,416.798,538.06,416.798z"/>
<path d="M489.124,516.86V153.227c0-56.215-45.73-101.952-101.946-101.952c-56.215,0-101.951,45.737-101.951,101.952V516.86
	c-42.114,31.9-67.082,81.857-67.082,134.833c0,93.205,75.829,169.033,169.033,169.033c93.205,0,169.034-75.828,169.034-169.033
	C556.211,598.717,531.244,548.76,489.124,516.86z M387.177,798.183c-80.776,0-146.49-65.713-146.49-146.49
	c0-47.621,23.288-92.442,62.297-119.887c3-2.113,4.784-5.554,4.784-9.223V153.227c0-43.788,35.622-79.41,79.409-79.41
	c43.782,0,79.404,35.622,79.404,79.41v369.356c0,3.669,1.784,7.109,4.784,9.223c39.015,27.45,62.303,72.266,62.303,119.887
	C533.668,732.47,467.949,798.183,387.177,798.183z"/>
<path d="M436.513,539.197v-385.97c0-27.209-22.132-49.341-49.336-49.341c-27.203,0-49.341,22.132-49.341,49.341v34.9
	c0,6.223,5.049,11.271,11.271,11.271c6.229,0,11.271-5.048,11.271-11.271v-34.9c0-14.776,12.022-26.799,26.798-26.799
	c14.776,0,26.793,12.023,26.793,26.799v334.011h-53.591v-253.92c0-6.229-5.043-11.271-11.271-11.271
	c-6.223,0-11.271,5.042-11.271,11.271v305.879c-42.707,19.25-70.885,62.345-70.885,109.631c0,66.295,53.931,120.227,120.22,120.227
	c66.295,0,120.227-53.932,120.227-120.227C507.405,601.541,479.22,558.447,436.513,539.197z M387.177,746.512
	c-53.867,0-97.683-43.817-97.683-97.685c0-40.576,25.536-77.36,63.552-91.521c4.409-1.644,7.339-5.858,7.339-10.561v-36.966h53.585
	v36.966c0,4.702,2.93,8.917,7.338,10.561c38.018,14.16,63.554,50.938,63.554,91.521
	C484.862,702.695,441.039,746.512,387.177,746.512z"/>
<path d="M229.823,289.148c15.795,1.45,22.613-19.57,8.994-27.666c-16.562-9.844-16.589-33.824,0-43.684
	c13.63-8.107,6.785-29.122-8.994-27.672c-19.201,1.78-33.289-17.636-25.678-35.338c6.267-14.567-11.629-27.551-23.533-17.102
	c-14.479,12.709-37.301,5.324-41.55-13.497c-3.494-15.47-25.6-15.454-29.088,0c-4.244,18.788-27.044,26.223-41.55,13.497
	c-11.91-10.46-29.794,2.541-23.534,17.102c7.622,17.719-6.492,37.113-25.677,35.338c-15.79-1.438-22.613,19.571-8.989,27.672
	c16.583,9.86,16.55,33.846-0.006,43.684c-13.613,8.096-6.801,29.11,8.995,27.666c19.18-1.779,33.299,17.62,25.677,35.339
	c-6.266,14.566,11.629,27.552,23.534,17.102c14.478-12.709,37.301-5.318,41.55,13.498c3.494,15.47,25.599,15.453,29.088,0
	c4.243-18.788,27.05-26.229,41.55-13.498c11.916,10.455,29.8-2.546,23.533-17.102C196.54,306.807,210.61,287.373,229.823,289.148z
	 M215.84,269.307c-21.351,5.445-36.319,25.761-34.881,48.01c-20.475-8.146-44.521-0.507-56.436,18.342
	c-11.794-18.656-35.747-26.576-56.441-18.342c1.427-22.04-13.315-42.509-34.881-48.01c14.076-16.952,14.241-42.184,0-59.34
	c21.45-5.467,36.314-25.848,34.881-48.009c20.519,8.163,44.548,0.474,56.441-18.336c11.827,18.711,35.801,26.542,56.436,18.336
	c-1.428,22.04,13.315,42.509,34.881,48.009C201.693,227.008,201.66,252.234,215.84,269.307z"/>
<path d="M124.518,181.297c-32.169,0-58.337,26.173-58.337,58.343s26.168,58.343,58.337,58.343c32.169,0,58.343-26.173,58.343-58.343
	S156.687,181.297,124.518,181.297z M124.518,276.814c-20.497,0-37.174-16.678-37.174-37.174c0-20.502,16.677-37.18,37.174-37.18
	c20.502,0,37.179,16.677,37.179,37.18C161.697,260.136,145.02,276.814,124.518,276.814z"/>
</svg>
