<?xml version="1.0" encoding="iso-8859-1"?>
<!-- Generator: Adobe Illustrator 19.0.0, SVG Export Plug-In . SVG Version: 6.00 Build 0)  -->
<svg version="1.1" id="Layer_1" xmlns="http://www.w3.org/2000/svg" xmlns:xlink="http://www.w3.org/1999/xlink" x="0px" y="0px"
	 viewBox="0 0 512 512" style="enable-background:new 0 0 512 512;" xml:space="preserve">
<g>
	<g>
		<g>
			<path d="M405.333,64V53.333c0-5.896-4.771-10.667-10.667-10.667S384,47.438,384,53.333V64h-21.333V42.667
				C362.667,19.135,343.531,0,320,0H192c-23.531,0-42.667,19.135-42.667,42.667V64H128V53.333c0-5.896-4.771-10.667-10.667-10.667
				c-5.896,0-10.667,4.771-10.667,10.667V64C83.135,64,64,83.135,64,106.667v192C64,314.392,72.642,328,85.333,335.4v101.934
				C85.333,443.229,90.104,448,96,448h42.667c5.896,0,10.667-4.771,10.667-10.667v-96h23.257l19.618,98.094
				c1,4.979,5.375,8.573,10.458,8.573h10.667v53.333c0,5.896,4.771,10.667,10.667,10.667s10.667-4.771,10.667-10.667V448h42.667
				v53.333c0,5.896,4.771,10.667,10.667,10.667s10.667-4.771,10.667-10.667V448h10.667c5.083,0,9.458-3.594,10.458-8.573
				l19.618-98.094h23.257v96c0,5.896,4.771,10.667,10.667,10.667H416c5.896,0,10.667-4.771,10.667-10.667V335.4
				C439.358,328,448,314.392,448,298.667v-192C448,83.135,428.865,64,405.333,64z M170.667,42.667
				c0-11.76,9.573-21.333,21.333-21.333h128c11.76,0,21.333,9.573,21.333,21.333V64H170.667V42.667z M128,426.667h-21.333v-85.333
				H128V426.667z M300.594,426.667h-89.188l-17.063-85.333h123.313L300.594,426.667z M405.333,426.667H384v-85.333h21.333V426.667z
				 M426.667,298.667c0,11.76-9.573,21.333-21.333,21.333H106.667c-11.76,0-21.333-9.573-21.333-21.333v-192
				c0-11.76,9.573-21.333,21.333-21.333h298.667c11.76,0,21.333,9.573,21.333,21.333V298.667z"/>
			<path d="M373.333,256H138.667c-5.896,0-10.667,4.771-10.667,10.667c0,5.896,4.771,10.667,10.667,10.667h234.667
				c5.896,0,10.667-4.771,10.667-10.667C384,260.771,379.229,256,373.333,256z"/>
			<path d="M373.333,192H138.667c-5.896,0-10.667,4.771-10.667,10.667c0,5.896,4.771,10.667,10.667,10.667h234.667
				c5.896,0,10.667-4.771,10.667-10.667C384,196.771,379.229,192,373.333,192z"/>
			<path d="M373.333,128H138.667c-5.896,0-10.667,4.771-10.667,10.667c0,5.896,4.771,10.667,10.667,10.667h234.667
				c5.896,0,10.667-4.771,10.667-10.667C384,132.771,379.229,128,373.333,128z"/>
		</g>
	</g>
</g>
<g>
</g>
<g>
</g>
<g>
</g>
<g>
</g>
<g>
</g>
<g>
</g>
<g>
</g>
<g>
</g>
<g>
</g>
<g>
</g>
<g>
</g>
<g>
</g>
<g>
</g>
<g>
</g>
<g>
</g>
</svg>
