<?xml version="1.0" encoding="utf-8"?>
<!-- Generator: Adobe Illustrator 16.0.0, SVG Export Plug-In . SVG Version: 6.00 Build 0)  -->
<!DOCTYPE svg PUBLIC "-//W3C//DTD SVG 1.1//EN" "http://www.w3.org/Graphics/SVG/1.1/DTD/svg11.dtd">
<svg version="1.1" id="Capa_1" xmlns="http://www.w3.org/2000/svg" xmlns:xlink="http://www.w3.org/1999/xlink" x="0px" y="0px"
	viewBox="0 0 623.621 870.24" enable-background="new 0 0 623.621 870.24"
	 xml:space="preserve">
<g>
	<g>
		<path d="M347.773,268.3c-37.405,0-67.834,30.43-67.834,67.833h34.576c0-18.338,14.92-33.257,33.259-33.257
			s33.259,14.919,33.259,33.257c0,18.338-14.92,33.257-33.259,33.257H122.258v34.576h225.515c37.403,0,67.833-30.43,67.833-67.833
			C415.606,298.73,385.176,268.3,347.773,268.3z"/>
	</g>
</g>
<g>
	<g>
		<path d="M461.367,485.671H192.114v34.575h269.253c18.339,0,33.259,14.919,33.259,33.258c0,18.338-14.92,33.258-33.259,33.258
			s-33.257-14.92-33.257-33.258h-34.576c0,37.403,30.432,67.833,67.833,67.833c37.402,0,67.834-30.43,67.834-67.833
			S498.769,485.671,461.367,485.671z"/>
	</g>
</g>
<g>
	<g>
		<path d="M528.412,305.216c-43.256,0-78.445,35.19-78.445,78.445h34.574c0-24.191,19.681-43.87,43.871-43.87
			c24.188,0,43.868,19.679,43.868,43.87c0,24.19-19.681,43.869-43.868,43.869H16.764v34.577h511.647
			c43.255,0,78.445-35.19,78.445-78.445S571.665,305.216,528.412,305.216z"/>
	</g>
</g>
<g>
	<g>
		<rect x="79.53" y="196.518" width="34.576" height="34.576"/>
	</g>
</g>
<g>
	<g>
		<rect x="175.893" y="256.663" width="34.576" height="34.576"/>
	</g>
</g>
<g>
	<g>
		<rect x="285.613" y="171.123" width="34.576" height="34.576"/>
	</g>
</g>
<g>
	<g>
		<rect x="548.689" y="171.123" width="34.574" height="34.576"/>
	</g>
</g>
<g>
	<g>
		<rect x="432.547" y="215.231" width="34.576" height="34.575"/>
	</g>
</g>
<g>
	<g>
		<rect x="37.266" y="512.673" width="34.576" height="34.575"/>
	</g>
</g>
<g>
	<g>
		<rect x="83.887" y="640.362" width="34.576" height="34.575"/>
	</g>
</g>
<g>
	<g>
		<rect x="223.146" y="576.108" width="34.576" height="34.576"/>
	</g>
</g>
<g>
	<g>
		<rect x="548.689" y="587.011" width="34.574" height="34.576"/>
	</g>
</g>
<g>
	<g>
		<rect x="311.81" y="640.362" width="34.577" height="34.575"/>
	</g>
</g>
<g>
	<g>
		<rect x="454.827" y="664.541" width="34.576" height="34.575"/>
	</g>
</g>
</svg>
